<?xml version="1.0" ?><!DOCTYPE svg  PUBLIC '-//W3C//DTD SVG 1.1//EN'  'http://www.w3.org/Graphics/SVG/1.1/DTD/svg11.dtd'><svg height="512px" style="enable-background:new 0 0 512 512;" version="1.1" viewBox="0 0 512 512" width="512px" xml:space="preserve" xmlns="http://www.w3.org/2000/svg" xmlns:xlink="http://www.w3.org/1999/xlink"><g id="_x31_14-firefox_x2C__browser"><g><g><g><path d="M494.604,256c0,132.094-106.865,228.839-238.602,228.839      c-131.739,0-238.605-107.156-238.605-239.248c0-41.388,10.589-80.506,29.049-114.419c0.211-0.627,0.628-1.257,1.045-1.675      c-10.378-15.579-14.943-55.115,11.391-81.555c0,11.038,6.657,29.966,14.109,44.112c6.028,11.246,12.44,19.35,17.002,18.305      c10.378-2.484,46.678-2.484,51.862,0c8.536-11.005,29.292-41.602,62.278-41.602c-18.463,18.511-71.372,83.226,20.756,83.226      h20.762l-62.273,41.604c0,0,7.068,13.729,0,20.815c-7.875-7.926-41.489,8.523-41.489,31.188      c0,22.672,24.066,52.005,72.629,52.005c48.551,0,36.289-20.812,62.24-20.812c25.949,0,31.109,20.812,31.109,20.812      c-35.699,0-61.621,41.604-103.734,41.604c20.756,15.396,34.449,20.812,62.246,20.812c68.686,0,124.49-55.953,124.49-124.828      c0-27.867-9.127-53.471-24.482-74.255c27.797,20.812,46.463,52.844,49.805,89.242c3.727-14.564,5.816-30.18,5.816-46.177      c0-62.62-26.549-145.431-72.629-176.832c66.391,19.946,145.225,84.51,145.225,208.021V256z M494.604,256" style="fill:#FF9800;"/></g></g></g></g><g id="Layer_1"/></svg>