<?xml version="1.0" ?><!DOCTYPE svg  PUBLIC '-//W3C//DTD SVG 1.1//EN'  'http://www.w3.org/Graphics/SVG/1.1/DTD/svg11.dtd'><svg height="512px" style="enable-background:new 0 0 512 512;" version="1.1" viewBox="0 0 512 512" width="512px" xml:space="preserve" xmlns="http://www.w3.org/2000/svg" xmlns:xlink="http://www.w3.org/1999/xlink"><g id="_x31_07-chrome"><g><g><g><g><path d="M75.01,100.117C185.93-29.315,391.609-3.777,468.465,147.433       c-54.131,0.025-138.863-0.033-184.768,0c-33.281,0-54.787-0.749-78.051,11.535c-27.352,14.448-48.015,41.212-55.209,72.682       L75.01,100.117z M75.01,100.117" style="fill:#F84437;"/><path d="M176.625,256.02c0,43.869,35.583,79.546,79.304,79.546c43.725,0,79.307-35.677,79.307-79.546       c0-43.871-35.582-79.554-79.307-79.554C212.176,176.438,176.625,212.148,176.625,256.02L176.625,256.02z M176.625,256.02" style="fill:#2299F8;"/><path d="M286.684,360.154c-44.504,13.244-96.604-1.441-125.119-50.849       c-21.769-37.678-79.336-138.192-105.464-183.918c-91.617,140.8-12.675,332.645,153.633,365.396L286.684,360.154z        M286.684,360.154" style="fill:#5ACF5F;"/><path d="M329.57,176.438c37.074,34.571,45.154,90.555,20.043,133.945       c-18.908,32.72-79.309,134.911-108.563,184.374c171.348,10.585,296.25-157.787,239.826-318.353L329.57,176.438z        M329.57,176.438" style="fill:#FFC107;"/></g></g></g></g></g><g id="Layer_1"/></svg>