<?xml version="1.0" ?><!DOCTYPE svg  PUBLIC '-//W3C//DTD SVG 1.1//EN'  'http://www.w3.org/Graphics/SVG/1.1/DTD/svg11.dtd'><svg height="512px" style="enable-background:new 0 0 512 512;" version="1.1" viewBox="0 0 512 512" width="512px" xml:space="preserve" xmlns="http://www.w3.org/2000/svg" xmlns:xlink="http://www.w3.org/1999/xlink"><g id="_x38_1-edge"><g><g><path d="M35.518,229.262h0.268c2.836-22.464,8.049-43.965,15.596-64.564     c7.551-20.614,17.774-39.926,30.665-58.023c12.882-18.091,27.765-33.76,44.644-47.04c16.885-13.28,36.745-23.747,59.591-31.401     c22.844-7.658,47.426-11.484,73.697-11.484c41.072,0,77.846,9.389,110.387,28.2c32.537,18.811,58.637,45.847,78.381,81.135     c18.486,33.313,27.736,72.704,27.736,118.159v50.24H176.529c0.183,19.767,4.922,36.934,14.258,51.468     c9.334,14.536,21.475,25.45,36.385,32.749c14.91,7.292,31.766,12.378,50.527,15.224c18.754,2.84,37.67,3.11,56.783,0.808     c19.121-2.307,37.586-6.466,55.445-12.441c17.869-5.981,33.285-13.485,46.26-22.581v100.783     c-16.34,9.811-36.746,18.005-61.168,24.58c-24.43,6.579-52.193,9.989-83.305,10.174c-31.107,0.176-59.172-4.549-84.26-14.176     c-33.58-13.014-61.26-35.199-83.029-66.543c-21.773-31.342-32.836-64.535-33.197-99.466     c-0.539-43.124,9.334-79.818,29.588-110.113c20.25-30.295,49.152-54.188,86.638-71.658     c-8.525,10.711-15.443,21.896-20.783,33.557c-5.344,11.663-9.426,25.899-12.264,42.648h169.29     c1.436-13.73,0.719-26.199-2.146-37.416c-2.83-11.214-7.008-20.278-12.523-27.128c-5.523-6.844-11.781-12.796-18.793-17.759     c-7.008-4.995-14.166-8.645-21.469-10.946c-7.285-2.307-13.965-4.158-19.988-5.471c-6.023-1.321-11.006-2.095-14.943-2.278     l-5.84-0.329c-23.982,0.901-47.068,4.848-69.197,11.906c-22.131,7.055-41.963,16.359-59.56,27.934     c-17.603,11.569-33.253,24.104-46.918,37.557C58.661,199.021,46.341,213.591,35.518,229.262L35.518,229.262z M35.518,229.262" style="fill:#2299F8;"/></g></g></g><g id="Layer_1"/></svg>