<svg xmlns="http://www.w3.org/2000/svg" xmlns:xlink="http://www.w3.org/1999/xlink" width="218.6" height="77.5" viewBox="0 0 218.6 77.5"><defs><style>.cls-1{isolation:isolate;}.cls-2,.cls-4{fill:#fff;}.cls-3,.cls-7{fill:#5285ff;}.cls-4{opacity:0.24;}.cls-4,.cls-5,.cls-6{mix-blend-mode:overlay;}.cls-5{opacity:0.41;fill:url(#名称未設定グラデーション_12);}.cls-6{opacity:0.18;fill:url(#名称未設定グラデーション_12-2);}.cls-7{opacity:0.83;}.cls-8,.cls-9{mix-blend-mode:screen;}.cls-8{fill:url(#名称未設定グラデーション_91);}.cls-9{fill:url(#名称未設定グラデーション_91-2);}</style><linearGradient id="名称未設定グラデーション_12" x1="-26" y1="3385.92" x2="0.57" y2="3385.92" gradientTransform="translate(59.63 -3339.52)" gradientUnits="userSpaceOnUse"><stop offset="0" stop-color="#fff"/><stop offset="0.47" stop-color="#c1bebd"/><stop offset="1" stop-color="#463d3a"/></linearGradient><linearGradient id="名称未設定グラデーション_12-2" x1="-52.57" y1="3385.92" x2="-26" y2="3385.92" xlink:href="#名称未設定グラデーション_12"/><linearGradient id="名称未設定グラデーション_91" x1="23.24" y1="73.09" x2="23.24" y2="0.25" gradientUnits="userSpaceOnUse"><stop offset="0.66" stop-color="#fff"/><stop offset="0.66" stop-color="#fdfdfd"/><stop offset="0.7" stop-color="#d1d1d1"/><stop offset="0.75" stop-color="#aaa"/><stop offset="0.79" stop-color="#8b8b8b"/><stop offset="0.84" stop-color="#737373"/><stop offset="0.88" stop-color="#616161"/><stop offset="0.94" stop-color="#575757"/><stop offset="1" stop-color="#545454"/></linearGradient><linearGradient id="名称未設定グラデーション_91-2" x1="400.81" y1="73.09" x2="400.81" y2="0.25" gradientTransform="matrix(-1, 0, 0, 1, 444.84, 0)" xlink:href="#名称未設定グラデーション_91"/></defs><title>アートボード 1 のコピー</title><g class="cls-1"><g id="Enterprise_Cloud_WebRTC_Platform_SkyWay" data-name="Enterprise Cloud WebRTC Platform SkyWay"><path class="cls-2" d="M92.1,36.36a13.39,13.39,0,0,0-5.54-1.28c-3.16,0-5.37,1.75-5.37,4.09,0,2,.9,3.41,5.63,5.5,5.16,2.26,7.34,4.82,7.34,8.79,0,5.2-4.09,8.87-10.15,8.87a17.84,17.84,0,0,1-7-1.28l.47-4a13.5,13.5,0,0,0,6.18,1.62c3.63,0,6.06-1.88,6.06-4.78,0-2.56-1.24-4-5.76-6-5.54-2.52-7.17-4.73-7.17-8.36,0-4.78,3.8-8.06,9.51-8.06a17.14,17.14,0,0,1,6.31,1.11Z"/><path class="cls-2" d="M105.1,55.63c-1.41-1.58-3.11-3.58-4.35-5.16h-.09V61.82H96.53V29.58h4.14v19.7h.09c1.15-1.32,3-3.28,4.44-4.78l4.44-4.44H115l-10.24,9.55,11.43,12.2h-5.5Z"/><path class="cls-2" d="M124.77,53.25c.47,1.36,1.19,3.8,1.58,5.29h.08c.43-1.49,1.19-4,1.62-5.29l4.44-13.18h4.09L128.82,61.6c-2.69,7.38-4.61,9.68-9,9.68a9,9,0,0,1-2.47-.34l.26-3.2a7,7,0,0,0,1.92.3c2.35,0,3.33-1.24,4.73-5.29L116,40.07h4.39Z"/><path class="cls-2" d="M159.91,40.24c-.3-1.24-.94-3.62-1.19-5h-.08c-.26,1.41-.77,3.67-1.11,5L152,61.82h-5.5l-9-29.77h4.65l5.59,20c.26.94,1.19,4.73,1.54,6.48h.08c.34-1.75,1.28-5.5,1.54-6.48l4.95-20h6.14L167,52c.26,1,1.15,4.73,1.49,6.48h.09c.38-1.75,1.28-5.37,1.58-6.48l5.54-20h4.48L171,61.82h-5.42Z"/><path class="cls-2" d="M180.25,41.39a14.32,14.32,0,0,1,7.25-1.83c6.35,0,8.74,3.67,8.74,8.61,0,2.77-.08,6.18-.08,7.08,0,2.39.08,5,.26,6.57h-3.63c0-.34-.08-1.15-.08-1.79s0-1.32.08-1.92h-.08a7.77,7.77,0,0,1-7.25,4c-4.61,0-7.59-2.56-7.59-6.57,0-4.52,4.09-7.08,11.43-7.08.9,0,2.09,0,3.07.13v-.17c0-3.67-1.83-5.54-5.54-5.54A11.4,11.4,0,0,0,180.51,45Zm9.94,10c-5.37,0-8,1.28-8,4.18,0,2.13,1.66,3.41,4.14,3.41a5.84,5.84,0,0,0,5.42-3.2,10.29,10.29,0,0,0,.68-4.31C191.94,51.41,191.17,51.37,190.19,51.37Z"/><path class="cls-2" d="M206.78,53.25c.47,1.36,1.19,3.8,1.58,5.29h.08c.43-1.49,1.19-4,1.62-5.29l4.44-13.18h4.09L210.84,61.6c-2.69,7.38-4.61,9.68-9,9.68a9,9,0,0,1-2.47-.34l.26-3.2a7,7,0,0,0,1.92.3c2.35,0,3.33-1.24,4.73-5.29L198,40.07h4.39Z"/><path class="cls-2" d="M85.35,24.12h-8V10h7.85v1.72h-5.8V16h5.4v1.7h-5.4v4.71h6Z"/><path class="cls-2" d="M89.58,15.46A4,4,0,0,1,93,13.56c2.91,0,3.84,1.92,3.84,4.65v5.91H94.94V19c0-2-.2-3.86-2.39-3.86a2.91,2.91,0,0,0-2.47,1.48,5.06,5.06,0,0,0-.49,2.55v4.93H87.68V16.86c0-1.09,0-2.18-.1-3.05h1.88c0,.45.08,1.11.08,1.66Z"/><path class="cls-2" d="M101.88,13.86h2.77v1.52h-2.77v4.53c0,1.64.22,2.77,1.78,2.77a2.62,2.62,0,0,0,1.11-.24l.06,1.52a4.64,4.64,0,0,1-1.64.28c-2.61,0-3.22-1.58-3.22-3.8V15.38H97.61V13.86H100V11.44l1.9-.65Z"/><path class="cls-2" d="M107.78,19.42a3.29,3.29,0,0,0,3.58,3.32,6.12,6.12,0,0,0,3-.77l.06,1.76a7.51,7.51,0,0,1-3.2.63c-3.44,0-5.4-2.08-5.4-5.48s2-5.32,4.91-5.32c2.71,0,4.43,1.64,4.43,5.12,0,.2,0,.53,0,.75Zm5.52-1.48c0-2-1.09-2.93-2.61-2.93a2.9,2.9,0,0,0-2.87,2.93Z"/><path class="cls-2" d="M119,15.54a3.23,3.23,0,0,1,2.89-2,2.78,2.78,0,0,1,1,.14v1.8a2.75,2.75,0,0,0-1-.16c-1.78,0-2.85,1.48-2.85,4.11v4.67H117V16.86c0-1.09,0-2.18-.1-3.05h1.9a16.67,16.67,0,0,1,.08,1.74Z"/><path class="cls-2" d="M124.51,16.86c0-1.09,0-2.18-.1-3.05h1.84c0,.42.08,1.13.08,1.66h0a3.88,3.88,0,0,1,3.54-1.9c2.65,0,4.43,2.1,4.43,5.26s-1.8,5.54-4.47,5.54a3.88,3.88,0,0,1-3.46-2h0c0,.4.06,1.94.06,2.55v3.44h-1.92Zm1.9,2.12c0,2.06,1.33,3.78,3,3.78s2.89-1.7,2.89-3.78c0-2.29-1.13-3.82-2.89-3.82S126.41,16.84,126.41,19Z"/><path class="cls-2" d="M137.92,15.54a3.23,3.23,0,0,1,2.89-2,2.79,2.79,0,0,1,1,.14v1.8a2.75,2.75,0,0,0-1-.16c-1.78,0-2.85,1.48-2.85,4.11v4.67H136V16.86c0-1.09,0-2.18-.1-3.05h1.9a16.67,16.67,0,0,1,.08,1.74Z"/><path class="cls-2" d="M145.38,11.94h-2.14V9.82h2.14Zm-.1,12.17h-1.94V13.8h1.94Z"/><path class="cls-2" d="M147.41,22.13a5.12,5.12,0,0,0,2.51.67c1.11,0,1.94-.53,1.94-1.42s-.55-1.19-2.14-2-2.37-1.56-2.37-2.87c0-1.86,1.5-3,3.6-3a6.45,6.45,0,0,1,2.39.42l-.16,1.6a4.86,4.86,0,0,0-2.2-.51c-1,0-1.7.47-1.7,1.31s.59,1.19,1.9,1.76c1.92.83,2.61,1.72,2.61,3.07,0,2.06-1.56,3.13-3.72,3.13a7.3,7.3,0,0,1-2.79-.51Z"/><path class="cls-2" d="M156.79,19.42a3.29,3.29,0,0,0,3.58,3.32,6.11,6.11,0,0,0,3-.77l.06,1.76a7.51,7.51,0,0,1-3.2.63c-3.44,0-5.4-2.08-5.4-5.48s2-5.32,4.91-5.32c2.71,0,4.43,1.64,4.43,5.12,0,.2,0,.53,0,.75Zm5.52-1.48c0-2-1.09-2.93-2.61-2.93a2.9,2.9,0,0,0-2.87,2.93Z"/><path class="cls-2" d="M179.12,12.31a6.07,6.07,0,0,0-3-.71A5.16,5.16,0,0,0,170.77,17a5.23,5.23,0,0,0,5.5,5.48,6.9,6.9,0,0,0,3-.61l.14,1.9a9,9,0,0,1-3.13.51c-4.45,0-7.64-2.57-7.64-7.28,0-4.19,3.24-7.12,7.5-7.12a7.84,7.84,0,0,1,3.17.55Z"/><path class="cls-2" d="M183.47,24.12h-1.94V8.83h1.94Z"/><path class="cls-2" d="M195.46,19a5.09,5.09,0,0,1-5.3,5.34,5.14,5.14,0,0,1-5.3-5.34,5.3,5.3,0,1,1,10.6,0Zm-8.55,0c0,2.27,1.33,3.74,3.3,3.74s3.26-1.5,3.26-3.74-1.38-3.86-3.32-3.86S186.91,16.73,186.91,19Z"/><path class="cls-2" d="M204,22.48a3.94,3.94,0,0,1-3.56,1.88c-2.31,0-3.72-1.62-3.72-4.13V13.8h1.92v5.1c0,2.14.22,3.86,2.35,3.86,1.82,0,3-1.68,3-3.64V13.8h1.92V21a29.49,29.49,0,0,0,.1,3.09h-1.84c0-.42-.08-1-.08-1.64Z"/><path class="cls-2" d="M217,21c0,1.09,0,2.24.1,3.11H215.3c0-.55-.06-1.11-.06-1.78h0a3.85,3.85,0,0,1-3.5,2c-2.77,0-4.53-2.12-4.53-5.34s1.84-5.46,4.55-5.46a3.71,3.71,0,0,1,3.36,1.8h0c0-.65-.06-1.56-.06-2.57v-4H217Zm-7.75-2c0,2.14,1.17,3.76,2.89,3.76s3-1.68,3-3.76-1.27-3.84-3-3.84S209.21,16.81,209.21,19Z"/><polygon class="cls-2" points="0.28 19.54 0.28 57.96 33.63 77.18 66.99 57.96 66.99 19.54 33.63 0.32 0.28 19.54"/><path class="cls-3" d="M33.63,77.5,0,58.13V19.37l.14-.08L33.63,0,67.27,19.37V58.13l-.14.08ZM.56,57.8,33.63,76.85,66.71,57.8V19.7L33.63.65.56,19.7Z"/><polygon class="cls-3" points="7.07 23.45 7.07 54.05 33.63 69.36 60.2 54.05 60.2 23.45 33.63 8.14 7.07 23.45"/><path class="cls-4" d="M33.63,70a.65.65,0,0,1-.65-.65V38.75a.65.65,0,0,1,1.29,0V69.36A.65.65,0,0,1,33.63,70Z"/><polygon class="cls-5" points="60.2 23.45 33.63 38.75 33.63 69.36 60.2 54.05 60.2 23.45"/><polygon class="cls-6" points="7.07 23.45 33.63 38.75 33.63 69.36 7.07 54.05 7.07 23.45"/><path class="cls-7" d="M35.2,9l-1.57-.9L32.06,9c-.21,5.33-.64,14.57-1.5,27.62-.77,11.69-2.09,22-3.14,29.11l6.21,3.58,6.21-3.58c-1.05-7.08-2.37-17.42-3.14-29.11C35.84,23.61,35.41,14.37,35.2,9Z"/><path class="cls-3" d="M32.06,9l-3.44,2a165.32,165.32,0,0,1-4.84,26.46,81.16,81.16,0,0,1-9.38,20.79l13,7.5c1.05-7.08,2.37-17.42,3.14-29.11C31.42,23.61,31.86,14.37,32.06,9Z"/><path class="cls-8" d="M32.06,9l-3.44,2a165.32,165.32,0,0,1-4.84,26.46,81.16,81.16,0,0,1-9.38,20.79l13,7.5c1.05-7.08,2.37-17.42,3.14-29.11C31.42,23.61,31.86,14.37,32.06,9Z"/><path class="cls-3" d="M38.65,11,35.2,9c.21,5.33.64,14.57,1.5,27.62.77,11.69,2.09,22,3.14,29.11l13-7.5a81.16,81.16,0,0,1-9.38-20.79A165.31,165.31,0,0,1,38.65,11Z"/><path class="cls-9" d="M38.65,11,35.2,9c.21,5.33.64,14.57,1.5,27.62.77,11.69,2.09,22,3.14,29.11l13-7.5a81.16,81.16,0,0,1-9.38-20.79A165.31,165.31,0,0,1,38.65,11Z"/></g></g></svg>